<svg width="126" height="121" viewBox="0 0 126 121" fill="none" xmlns="http://www.w3.org/2000/svg">
<g clip-path="url(#clip0_3_205)">
<path d="M28 26L34.36 88.9173L62.8988 96L91.6364 88.9173L98 26H28ZM84.1772 46.5195H50.6705L51.4189 54.4359H83.4323L80.9483 78.2327L63.0976 82.5632V82.6077H62.8988L44.8998 78.2327L43.8042 66.075H52.5036L53.1508 72.2L62.8951 74.5164L72.6865 72.2L73.782 62.2218H43.3559L41.0238 38.8641H84.9726L84.1772 46.5195Z" fill="#16324F"/>
<path d="M25.2642 121V106.455H28.3395V112.456H34.5824V106.455H37.6506V121H34.5824V114.991H28.3395V121H25.2642ZM39.6321 108.99V106.455H51.5781V108.99H47.125V121H44.0852V108.99H39.6321ZM53.5455 106.455H57.3381L61.3438 116.227H61.5142L65.5199 106.455H69.3125V121H66.3295V111.533H66.2088L62.4446 120.929H60.4134L56.6491 111.497H56.5284V121H53.5455V106.455ZM71.8462 121V106.455H74.9215V118.464H81.1573V121H71.8462ZM88.4212 121.199C87.4174 121.199 86.5225 121.014 85.7365 120.645C84.9553 120.276 84.335 119.767 83.8757 119.118C83.4164 118.469 83.1773 117.726 83.1584 116.888H86.1413C86.1745 117.451 86.4112 117.908 86.8516 118.259C87.2919 118.609 87.8151 118.784 88.4212 118.784C88.9041 118.784 89.3303 118.678 89.6996 118.464C90.0736 118.247 90.3648 117.946 90.5732 117.562C90.7862 117.174 90.8928 116.729 90.8928 116.227C90.8928 115.716 90.7839 115.266 90.5661 114.878C90.353 114.49 90.0571 114.187 89.6783 113.969C89.2995 113.751 88.8662 113.64 88.3786 113.635C87.9524 113.635 87.5381 113.723 87.1357 113.898C86.7379 114.073 86.4278 114.312 86.2053 114.615L83.4709 114.125L84.1598 106.455H93.0518V108.969H86.6953L86.3189 112.612H86.4041C86.6598 112.252 87.0457 111.954 87.5618 111.717C88.0779 111.481 88.6555 111.362 89.2947 111.362C90.1707 111.362 90.9519 111.568 91.6385 111.98C92.325 112.392 92.8672 112.958 93.2649 113.678C93.6626 114.393 93.8591 115.216 93.8544 116.149C93.8591 117.129 93.6319 118 93.1726 118.763C92.718 119.52 92.0812 120.117 91.2621 120.553C90.4477 120.983 89.5007 121.199 88.4212 121.199Z" fill="#16324F"/>
</g>
<defs>
<clipPath id="clip0_3_205">
<rect width="126" height="121" fill="white"/>
</clipPath>
</defs>
</svg>
